<?xml version="1.0" encoding="UTF-8" standalone="no"?>
<!DOCTYPE svg PUBLIC "-//W3C//DTD SVG 1.1//EN" "http://www.w3.org/Graphics/SVG/1.1/DTD/svg11.dtd">
<!-- Generated by Microsoft Visio, SVG Export logos.svg Page-1 -->
<svg xmlns="http://www.w3.org/2000/svg" xmlns:xlink="http://www.w3.org/1999/xlink" xmlns:ev="http://www.w3.org/2001/xml-events"
		xmlns:v="http://schemas.microsoft.com/visio/2003/SVGExtensions/" width="1.93771in" height="0.753613in"
		viewBox="0 0 139.515 54.2601" xml:space="preserve" color-interpolation-filters="sRGB" class="st5">
	<v:documentProperties v:langID="1033" v:metric="true" v:viewMarkup="false"/>

	<style type="text/css">
	<![CDATA[
		.st1 {fill:url(#grad0-7);stroke:none;stroke-width:0.75}
		.st2 {fill:none;stroke:none;stroke-linecap:butt;stroke-width:1.7}
		.st3 {fill:#32576d;font-family:Britannic Bold;font-size:1.00001em;font-weight:bold}
		.st4 {font-size:1em}
		.st5 {fill:none;fill-rule:evenodd;font-size:12px;overflow:visible;stroke-linecap:square;stroke-miterlimit:3}
	]]>
	</style>

	<defs id="Patterns_And_Gradients">
		<linearGradient id="grad0-7" x1="0" y1="0" x2="1" y2="0" gradientTransform="rotate(90 0.5 0.5)">
			<stop offset="0" stop-color="#7b391e" stop-opacity="1"/>
			<stop offset="0.74" stop-color="#cc3300" stop-opacity="1"/>
			<stop offset="0.83" stop-color="#990000" stop-opacity="1"/>
			<stop offset="1" stop-color="#a50021" stop-opacity="1"/>
		</linearGradient>
	</defs>
	<g v:mID="0" v:index="1" v:groupContext="foregroundPage">
		<title>Page-1</title>
		<v:pageProperties v:drawingScale="0.0393701" v:pageScale="0.0393701" v:drawingUnits="24" v:shadowOffsetX="8.50394"
				v:shadowOffsetY="-8.50394"/>
		<g id="group34-1" transform="translate(0.75,-7.23245)" v:mID="34" v:groupContext="group">
			<title>Sheet.34</title>
			<g id="group21-2" v:mID="21" v:groupContext="group">
				<v:userDefs/>
				<title>Project Knowledge Exploration</title>
				<desc>Created by HiQPdf</desc>
				<g id="group22-3" transform="translate(-1.59872E-14,-0.441467)" v:mID="22" v:groupContext="group">
					<title>Sheet.22</title>
					<g id="shape23-4" v:mID="23" v:groupContext="shape" transform="translate(30.1029,1.98952E-13)">
						<title>Sheet.23</title>
						<path d="M6.17 51.21 C4.47 51.21 3.09 49.84 3.09 48.15 C3.09 46.47 4.47 45.1 6.17 45.1 C7.88 45.1 9.26 46.47
									 9.26 48.15 C9.26 49.84 7.88 51.21 6.17 51.21 ZM6.17 42.05 C2.76 42.05 0 44.78 0 48.15 C0 51.53
									 2.76 54.26 6.17 54.26 C9.59 54.26 12.35 51.53 12.35 48.15 C12.35 44.78 9.59 42.05 6.17 42.05
									 Z" class="st1"/>
					</g>
					<g id="shape24-8" v:mID="24" v:groupContext="shape" transform="translate(0,-9.15813)">
						<title>Sheet.24</title>
						<path d="M15.44 51.21 C8.62 51.21 3.09 45.74 3.09 39 C3.09 32.25 8.62 26.79 15.44 26.79 C18.47 26.79 21.25
									 27.87 23.4 29.67 C21.73 31.55 20.71 34.01 20.71 36.71 C20.71 40.51 22.72 43.83 25.74 45.73 C23.53
									 49.03 19.74 51.21 15.44 51.21 ZM23.79 36.71 C23.79 34.9 24.43 33.24 25.5 31.93 C26.93 33.93
									 27.79 36.36 27.79 39 C27.79 40.39 27.54 41.72 27.11 42.97 C25.11 41.59 23.79 39.3 23.79 36.71
									 ZM39.23 36.71 C39.23 40.92 35.78 44.34 31.51 44.34 C30.97 44.34 30.45 44.28 29.94 44.18 C30.54
									 42.56 30.87 40.82 30.87 39 C30.87 35.62 29.75 32.51 27.87 29.98 C28.96 29.4 30.2 29.08 31.51
									 29.08 C35.78 29.08 39.23 32.49 39.23 36.71 ZM31.51 47.39 C37.48 47.39 42.32 42.61 42.32 36.71
									 C42.32 30.81 37.48 26.02 31.51 26.02 C29.4 26.02 27.43 26.63 25.76 27.67 C23.03 25.23 19.41
									 23.73 15.44 23.73 C6.91 23.73 0 30.57 0 39 C0 47.43 6.91 54.26 15.44 54.26 C21 54.26 25.86 51.34
									 28.58 46.98 C29.51 47.24 30.49 47.39 31.51 47.39 Z" class="st1"/>
					</g>
				</g>
			</g>
			<g id="shape33-11" v:mID="33" v:groupContext="shape" transform="translate(37.3037,5.53245)">
				<title>Sheet.33</title>
				<desc>Communication Monitor</desc>
				<v:textBlock v:margins="rect(4,4,4,4)" v:tabSpace="42.5197"/>
				<v:textRect cx="47.9289" cy="28.8301" width="95.86" height="50.8601"/>
				<rect x="0" y="3.4" width="95.8578" height="50.8601" rx="2.88" ry="2.88" class="st2"/>
				<text x="8.69" y="25.23" class="st3" v:langID="1033"><v:paragraph v:horizAlign="2"/><v:tabList/>Communication <tspan
							x="50.86" dy="1.2em" class="st4">Monitor</tspan></text>			</g>
		</g>
	</g>
</svg>
